<svg width="661" height="494" viewBox="0 0 661 494" fill="none" xmlns="http://www.w3.org/2000/svg">
<path d="M339.48 295.568L189.787 150.795L329.954 15.2341L470.121 150.795L366.243 251.259L262.366 150.795L329.954 85.4274L397.543 150.795L366.243 181.066L322.696 138.95" stroke="#4A3AFF" stroke-width="21.9011"/>
<path d="M320.237 379.106C335.179 379.106 346.797 383.741 355.098 393.01C363.531 402.279 367.754 416.114 367.754 434.514C367.754 435.897 367.684 437.489 367.545 439.287C367.545 440.947 367.475 442.469 367.336 443.853H295.761C296.451 452.569 299.49 459.347 304.884 464.19C310.417 468.894 318.369 471.245 328.746 471.245C334.83 471.245 340.365 470.692 345.348 469.585C350.463 468.478 354.471 467.302 357.377 466.057L360.701 486.602C359.314 487.293 357.377 488.055 354.889 488.885C352.54 489.576 349.773 490.199 346.588 490.752C343.549 491.444 340.225 491.997 336.629 492.412C333.033 492.827 329.366 493.034 325.631 493.034C316.09 493.034 307.789 491.652 300.736 488.885C293.684 485.98 287.872 482.037 283.31 477.056C278.745 471.938 275.356 465.988 273.143 459.209C270.93 452.292 269.823 444.752 269.823 436.589C269.823 427.043 271.207 418.673 273.973 411.48C276.877 404.285 280.681 398.336 285.384 393.632C290.087 388.791 295.482 385.193 301.566 382.842C307.651 380.352 313.874 379.106 320.237 379.106ZM426.317 379.106C434.618 379.106 441.601 380.144 447.274 382.219C452.947 384.294 457.442 387.2 460.76 390.935C464.217 394.67 466.643 399.236 468.022 404.631C469.542 409.888 470.301 415.698 470.301 422.063V487.847C466.433 488.677 460.551 489.646 452.669 490.752C444.926 491.997 436.137 492.62 426.317 492.62C419.822 492.62 413.87 491.997 408.476 490.752C403.082 489.507 398.447 487.501 394.579 484.735C390.844 481.967 387.868 478.37 385.651 473.943C383.582 469.516 382.543 464.051 382.543 457.549C382.543 451.323 383.721 446.066 386.069 441.778C388.557 437.489 391.882 434.03 396.028 431.402C400.175 428.635 404.949 426.698 410.344 425.591C415.877 424.346 421.621 423.723 427.565 423.723C430.332 423.723 433.238 423.931 436.276 424.346C439.322 424.623 442.571 425.176 446.027 426.006V421.856C446.027 418.95 445.685 416.183 444.995 413.554C444.298 410.926 443.058 408.643 441.26 406.706C439.601 404.632 437.315 403.041 434.409 401.934C431.642 400.827 428.115 400.274 423.829 400.274C418.024 400.274 412.692 400.688 407.855 401.518C403.012 402.348 399.074 403.317 396.028 404.424L392.913 384.086C396.098 382.979 400.733 381.873 406.817 380.766C412.902 379.659 419.404 379.106 426.317 379.106ZM532.077 379.106C540.377 379.106 547.36 380.144 553.033 382.219C558.706 384.294 563.202 387.2 566.52 390.935C569.976 394.67 572.401 399.236 573.781 404.631C575.301 409.888 576.06 415.698 576.061 422.063V487.847C572.193 488.677 566.31 489.645 558.428 490.752C550.685 491.997 541.897 492.62 532.077 492.62C525.582 492.62 519.63 491.997 514.235 490.752C508.841 489.507 504.206 487.501 500.338 484.735C496.602 481.967 493.626 478.37 491.41 473.943C489.34 469.516 488.302 464.051 488.302 457.549C488.302 451.323 489.48 446.067 491.829 441.778C494.317 437.489 497.641 434.03 501.788 431.402C505.935 428.635 510.708 426.698 516.103 425.591C521.636 424.346 527.379 423.723 533.324 423.723C536.091 423.723 538.997 423.931 542.036 424.346C545.082 424.623 548.329 425.176 551.786 426.006V421.856C551.786 418.95 551.445 416.183 550.755 413.554C550.058 410.926 548.817 408.643 547.019 406.706C545.36 404.632 543.074 403.041 540.168 401.934C537.401 400.827 533.875 400.274 529.589 400.274C523.784 400.274 518.452 400.688 513.615 401.518C508.772 402.348 504.834 403.317 501.788 404.424L498.673 384.086C501.858 382.979 506.492 381.873 512.576 380.766C518.66 379.659 525.164 379.106 532.077 379.106ZM26.1416 467.717H90.874V490.337H0V346.525H26.1416V467.717ZM130.746 490.337H105.643V381.804H130.746V490.337ZM203.232 379.521C212.084 379.521 219.484 380.766 225.432 383.256C231.379 385.608 236.082 388.998 239.54 393.425C243.136 397.714 245.625 402.971 247.009 409.197C248.53 415.284 249.291 421.993 249.291 429.325V490.337H224.187V433.269C224.187 427.458 223.772 422.547 222.942 418.535C222.25 414.384 221.005 411.064 219.207 408.573C217.548 405.945 215.196 404.078 212.153 402.971C209.249 401.726 205.652 401.104 201.364 401.104C198.183 401.104 194.863 401.31 191.405 401.726C187.947 402.14 185.389 402.487 183.729 402.764V490.337H158.625V385.332C163.466 383.949 169.759 382.634 177.505 381.389C185.251 380.144 193.827 379.521 203.232 379.521ZM636.288 379.521C637.954 379.521 639.885 379.659 642.101 379.936C644.31 380.074 646.526 380.351 648.742 380.766C650.951 381.043 653.098 381.459 655.168 382.012C657.244 382.427 658.903 382.841 660.15 383.256L655.795 404.424C653.718 403.732 650.812 403.04 647.076 402.348C643.48 401.518 639.264 401.104 634.42 401.104C631.653 401.104 628.684 401.38 625.499 401.934C622.46 402.487 620.314 402.971 619.066 403.386V490.337H593.963V386.992C598.807 385.194 604.821 383.533 612.014 382.012C619.345 380.351 627.437 379.521 636.288 379.521ZM431.301 441.778C428.534 441.778 425.697 441.985 422.791 442.4C420.024 442.815 417.467 443.576 415.118 444.683C412.902 445.79 411.104 447.38 409.724 449.455C408.337 451.392 407.646 453.883 407.646 456.927C407.647 462.875 409.515 467.026 413.25 469.377C416.986 471.591 422.032 472.698 428.395 472.698C436.137 472.698 442.02 472.282 446.027 471.452V443.645C444.647 443.229 442.64 442.815 440.013 442.4C437.385 441.985 434.479 441.778 431.301 441.778ZM537.06 441.778C534.293 441.778 531.456 441.985 528.55 442.4C525.783 442.815 523.226 443.576 520.877 444.683C518.661 445.79 516.862 447.38 515.482 449.455C514.096 451.392 513.406 453.883 513.406 456.927C513.406 462.875 515.273 467.026 519.009 469.377C522.744 471.591 527.79 472.697 534.153 472.698C541.896 472.698 547.779 472.282 551.786 471.452V443.645C550.406 443.229 548.399 442.815 545.771 442.4C543.144 441.985 540.238 441.778 537.06 441.778ZM320.446 400.066C316.571 400.066 313.184 400.826 310.277 402.348C307.378 403.731 304.883 405.599 302.813 407.951C300.876 410.303 299.357 413.001 298.249 416.045C297.141 419.089 296.381 422.201 295.963 425.383H342.65C342.65 421.924 342.162 418.673 341.193 415.63C340.225 412.448 338.775 409.75 336.838 407.536C335.04 405.185 332.761 403.386 329.994 402.141C327.367 400.757 324.182 400.066 320.446 400.066ZM111.578 324.24C116.277 321.57 121.605 321.028 126.447 322.306C130.594 323.401 128.338 327.792 126.827 330.667C125.697 332.819 123.748 337.248 123.099 341.962C128.066 344.233 142.538 348.702 135.135 355.802H135.134C135.101 355.833 135.068 355.865 135.035 355.897C133.897 356.973 132.61 357.931 131.187 358.74C126.124 361.616 120.332 362.023 115.202 360.344C115.099 360.31 114.995 360.275 114.893 360.24C114.594 360.136 114.298 360.026 114.005 359.909C113.99 359.904 113.975 359.898 113.961 359.892C113.654 359.768 113.35 359.636 113.049 359.497C109.417 357.821 106.256 355.035 104.129 351.292C99.4635 343.084 101.293 332.958 107.983 326.849C109.059 325.867 110.259 324.989 111.578 324.24Z" fill="#4A3AFF"/>
</svg>
